<svg xmlns="http://www.w3.org/2000/svg" xmlns:xlink="http://www.w3.org/1999/xlink" version="1.1" id="Layer_1" x="0px" y="0px" width="100px" height="100px" viewBox="0 0 100 100" enable-background="new 0 0 100 100" xml:space="preserve">
<g>
	<path fill="#000000" d="M50,10.498c-21.781,0-39.502,17.721-39.502,39.502S28.219,89.502,50,89.502S89.502,71.781,89.502,50   S71.781,10.498,50,10.498z M20.75,52.891v-5.781h58.5v5.781H20.75z"/>
	<path fill="#000000" d="M50,8.498C27.079,8.498,8.498,27.079,8.498,50c0,22.92,18.581,41.502,41.502,41.502   c22.92,0,41.502-18.582,41.502-41.502C91.502,27.079,72.92,8.498,50,8.498z M50,90.502C27.667,90.502,9.498,72.332,9.498,50   C9.498,27.667,27.667,9.498,50,9.498c22.332,0,40.502,18.169,40.502,40.502C90.502,72.332,72.332,90.502,50,90.502z"/>
</g>
</svg>