<?xml version="1.0" encoding="iso-8859-1"?>
<!-- Generator: Adobe Illustrator 16.0.4, SVG Export Plug-In . SVG Version: 6.00 Build 0)  -->
<!DOCTYPE svg PUBLIC "-//W3C//DTD SVG 1.1//EN" "http://www.w3.org/Graphics/SVG/1.1/DTD/svg11.dtd">
<svg version="1.1" id="Layer_1" xmlns="http://www.w3.org/2000/svg" xmlns:xlink="http://www.w3.org/1999/xlink" x="0px" y="0px"
	 width="144px" height="144px" viewBox="0 0 144 144" style="enable-background:new 0 0 144 144;" xml:space="preserve">
<path style="fill:#1A1A1A;" d="M83.715,47.508H42.617c-1.308,0-2.365,1.059-2.365,2.365v44.939c0,1.306,1.058,2.363,2.365,2.363
	h41.098L105,72.342L83.715,47.508z M66.834,86.567c-10.047,0-13.423-0.455-13.423-0.455s0.524-8.014,4.191-9.454
	c3.665-1.442,4.564-1.238,5.835-2.006c0.032-0.018,0.064-0.037,0.096-0.053v-2.157c-1.221-1.07-2.193-2.683-2.762-4.527
	c-0.662-0.711-1.045-1.547-1.045-2.443c0-0.614,0.183-1.199,0.51-1.737c0.217-4.519,3.091-7.508,6.606-7.508
	c3.519,0,6.393,2.99,6.607,7.508c0.328,0.538,0.509,1.123,0.509,1.737c0,0.896-0.382,1.732-1.044,2.443
	c-0.567,1.844-1.541,3.457-2.761,4.526V74.6c0.031,0.016,0.062,0.035,0.094,0.053c1.273,0.768,2.171,0.563,5.838,2.006
	c3.667,1.44,4.189,9.454,4.189,9.454S76.881,86.567,66.834,86.567z"/>
</svg>
